<?xml version="1.0" encoding="UTF-8"?>
<svg id="Camada_1" xmlns="http://www.w3.org/2000/svg" version="1.1" viewBox="0 0 500 209">
  <!-- Generator: Adobe Illustrator 29.1.0, SVG Export Plug-In . SVG Version: 2.1.0 Build 142)  -->
  <defs>
    <style>
      .st0 {
        fill: #f2f2f2;
      }
    </style>
  </defs>
  <path class="st0" d="M132,174.5c-4.7,0-9.3-1.1-13.9-3.4-4.6-2.3-8.9-5.7-12.9-10.3h-.8l-2.9,11.2h-27.8V27.5h35.7v33.6l-1.2,14.9h.8c3.6-3.3,7.6-5.9,12.1-7.7,4.5-1.8,9.1-2.7,13.8-2.7,8.4,0,15.7,2.2,21.9,6.5,6.2,4.4,10.9,10.5,14.3,18.3,3.4,7.8,5.1,17.1,5.1,27.7s-2.1,22.1-6.3,30.5c-4.2,8.4-9.7,14.8-16.4,19.2-6.7,4.4-13.9,6.5-21.5,6.5ZM123.5,145.4c2.9,0,5.6-.8,8-2.5,2.4-1.7,4.4-4.4,5.9-8.3,1.5-3.9,2.3-9.1,2.3-15.8s-.6-10.3-1.8-13.8c-1.2-3.5-2.9-6.1-5.1-7.8-2.2-1.7-5.1-2.5-8.5-2.5s-5.3.6-7.7,1.7c-2.4,1.1-4.8,3-7.3,5.8,0,0,0,38.2,0,38.2,2.2,1.8,4.5,3.1,7,3.8,2.4.8,4.8,1.1,7.2,1.1Z"/>
  <path class="st0" d="M227.2,174.5c-10.9,0-20.8-2.1-29.6-6.4-8.8-4.3-15.7-10.5-20.9-18.6-5.1-8.1-7.7-17.9-7.7-29.4s2.6-21.1,7.8-29.2c5.2-8.1,11.9-14.3,20.2-18.7,8.3-4.4,17.1-6.5,26.4-6.5s20.1,2.3,27.4,6.7c7.3,4.5,12.8,10.6,16.5,18.2,3.7,7.6,5.5,16.1,5.5,25.3s-.2,6-.5,8.8c-.3,2.8-.7,4.9-.9,6.1,0,0-63.7,0-74,0s-1.4-.6-1.4-1.4v-21.9h50.7l-5,6.2c0-6.9-1.4-12.2-4.2-15.8-2.8-3.6-7.1-5.4-12.9-5.4s-8.4,1-11.5,2.9c-3.1,1.9-5.5,5-7.2,9-1.7,4.1-2.5,9.2-2.5,15.5s1.1,11.8,3.2,15.8c2.1,4,5.3,7,9.5,8.8,4.2,1.9,9.5,2.8,15.9,2.8s8.2-.5,12.1-1.6c3.9-1,8.2-2.6,12.8-4.7l11.6,21.2c-6.2,3.9-13.1,6.9-20.6,8.9-7.5,2.1-14.5,3.1-21,3.1Z"/>
  <path class="st0" d="M435.3,169.4c-4.2,1.1-8.9,2.2-14.1,3.3-5.7,1.2-12,1.8-19.1,1.8-11.3,0-20.4-1.9-27.2-5.8-6.8-3.9-11.7-9.3-14.7-16.3s-4.6-15.1-4.6-24.4v-32l.4-6.9-44.7,52.8c-.8.9-.1,2.3,1.1,2.3h43.3v27.8h-95.3v-18.6c0-.3.1-.7.3-.9l45.5-54.2c.7-.9.1-2.3-1.1-2.3h-39v-27.8h91.1l4.4-30c0-.7.7-1.2,1.4-1.2h28.3v29.8c0,.8.6,1.4,1.4,1.4h32.6v27.8h-34v31.3c0,4.8.8,8.7,2.3,11.5,1.5,2.8,3.8,4.8,6.7,6,3,1.2,6.7,1.8,11.1,1.8s6.9-.3,10.1-.9c2.6-.5,5.1-1.2,7.4-1.9.8-.2,1.6.2,1.8,1l5.6,23c.2.7-.2,1.5-1,1.7Z"/>
</svg>